<svg id="visual" viewBox="0 0 900 300" width="900" height="300" xmlns="http://www.w3.org/2000/svg" xmlns:xlink="http://www.w3.org/1999/xlink" version="1.1"><rect x="0" y="0" width="900" height="300" fill="#001220"></rect><defs><linearGradient id="grad1_0" x1="66.7%" y1="0%" x2="100%" y2="100%"><stop offset="-10%" stop-color="#fbae3c" stop-opacity="1"></stop><stop offset="110%" stop-color="#fbae3c" stop-opacity="1"></stop></linearGradient></defs><defs><linearGradient id="grad1_1" x1="66.7%" y1="0%" x2="100%" y2="100%"><stop offset="-10%" stop-color="#fbae3c" stop-opacity="1"></stop><stop offset="110%" stop-color="#f48350" stop-opacity="1"></stop></linearGradient></defs><defs><linearGradient id="grad1_2" x1="66.7%" y1="0%" x2="100%" y2="100%"><stop offset="-10%" stop-color="#d96162" stop-opacity="1"></stop><stop offset="110%" stop-color="#f48350" stop-opacity="1"></stop></linearGradient></defs><defs><linearGradient id="grad1_3" x1="66.7%" y1="0%" x2="100%" y2="100%"><stop offset="-10%" stop-color="#d96162" stop-opacity="1"></stop><stop offset="110%" stop-color="#af4b6d" stop-opacity="1"></stop></linearGradient></defs><defs><linearGradient id="grad1_4" x1="66.7%" y1="0%" x2="100%" y2="100%"><stop offset="-10%" stop-color="#7c3e6b" stop-opacity="1"></stop><stop offset="110%" stop-color="#af4b6d" stop-opacity="1"></stop></linearGradient></defs><defs><linearGradient id="grad1_5" x1="66.7%" y1="0%" x2="100%" y2="100%"><stop offset="-10%" stop-color="#7c3e6b" stop-opacity="1"></stop><stop offset="110%" stop-color="#49335c" stop-opacity="1"></stop></linearGradient></defs><defs><linearGradient id="grad1_6" x1="66.7%" y1="0%" x2="100%" y2="100%"><stop offset="-10%" stop-color="#1d2540" stop-opacity="1"></stop><stop offset="110%" stop-color="#49335c" stop-opacity="1"></stop></linearGradient></defs><defs><linearGradient id="grad1_7" x1="66.7%" y1="0%" x2="100%" y2="100%"><stop offset="-10%" stop-color="#1d2540" stop-opacity="1"></stop><stop offset="110%" stop-color="#001220" stop-opacity="1"></stop></linearGradient></defs><defs><linearGradient id="grad2_0" x1="0%" y1="0%" x2="33.3%" y2="100%"><stop offset="-10%" stop-color="#fbae3c" stop-opacity="1"></stop><stop offset="110%" stop-color="#fbae3c" stop-opacity="1"></stop></linearGradient></defs><defs><linearGradient id="grad2_1" x1="0%" y1="0%" x2="33.3%" y2="100%"><stop offset="-10%" stop-color="#f48350" stop-opacity="1"></stop><stop offset="110%" stop-color="#fbae3c" stop-opacity="1"></stop></linearGradient></defs><defs><linearGradient id="grad2_2" x1="0%" y1="0%" x2="33.3%" y2="100%"><stop offset="-10%" stop-color="#f48350" stop-opacity="1"></stop><stop offset="110%" stop-color="#d96162" stop-opacity="1"></stop></linearGradient></defs><defs><linearGradient id="grad2_3" x1="0%" y1="0%" x2="33.3%" y2="100%"><stop offset="-10%" stop-color="#af4b6d" stop-opacity="1"></stop><stop offset="110%" stop-color="#d96162" stop-opacity="1"></stop></linearGradient></defs><defs><linearGradient id="grad2_4" x1="0%" y1="0%" x2="33.3%" y2="100%"><stop offset="-10%" stop-color="#af4b6d" stop-opacity="1"></stop><stop offset="110%" stop-color="#7c3e6b" stop-opacity="1"></stop></linearGradient></defs><defs><linearGradient id="grad2_5" x1="0%" y1="0%" x2="33.3%" y2="100%"><stop offset="-10%" stop-color="#49335c" stop-opacity="1"></stop><stop offset="110%" stop-color="#7c3e6b" stop-opacity="1"></stop></linearGradient></defs><defs><linearGradient id="grad2_6" x1="0%" y1="0%" x2="33.3%" y2="100%"><stop offset="-10%" stop-color="#49335c" stop-opacity="1"></stop><stop offset="110%" stop-color="#1d2540" stop-opacity="1"></stop></linearGradient></defs><defs><linearGradient id="grad2_7" x1="0%" y1="0%" x2="33.3%" y2="100%"><stop offset="-10%" stop-color="#001220" stop-opacity="1"></stop><stop offset="110%" stop-color="#1d2540" stop-opacity="1"></stop></linearGradient></defs><g transform="translate(900, 0)"><path d="M0 300C-56.4 294.4 -112.8 288.9 -150 259.8C-187.2 230.8 -205.1 178.2 -226.9 131C-248.7 83.8 -274.3 41.9 -300 0L0 0Z" fill="#0c1c30"></path><path d="M0 262.5C-49.4 257.6 -98.7 252.8 -131.2 227.3C-163.8 201.9 -179.5 155.9 -198.5 114.6C-217.6 73.3 -240.1 36.7 -262.5 0L0 0Z" fill="#312c4f"></path><path d="M0 225C-42.3 220.8 -84.6 216.6 -112.5 194.9C-140.4 173.1 -153.8 133.7 -170.2 98.3C-186.5 62.8 -205.8 31.4 -225 0L0 0Z" fill="#623965"></path><path d="M0 187.5C-35.3 184 -70.5 180.5 -93.7 162.4C-117 144.2 -128.2 111.4 -141.8 81.9C-155.4 52.4 -171.5 26.2 -187.5 0L0 0Z" fill="#96446e"></path><path d="M0 150C-28.2 147.2 -56.4 144.4 -75 129.9C-93.6 115.4 -102.6 89.1 -113.4 65.5C-124.3 41.9 -137.2 20.9 -150 0L0 0Z" fill="#c55469"></path><path d="M0 112.5C-21.2 110.4 -42.3 108.3 -56.2 97.4C-70.2 86.5 -76.9 66.8 -85.1 49.1C-93.3 31.4 -102.9 15.7 -112.5 0L0 0Z" fill="#e9705a"></path><path d="M0 75C-14.1 73.6 -28.2 72.2 -37.5 65C-46.8 57.7 -51.3 44.6 -56.7 32.8C-62.2 20.9 -68.6 10.5 -75 0L0 0Z" fill="#fa9845"></path><path d="M0 37.5C-7.1 36.8 -14.1 36.1 -18.7 32.5C-23.4 28.8 -25.6 22.3 -28.4 16.4C-31.1 10.5 -34.3 5.2 -37.5 0L0 0Z" fill="#fbae3c"></path></g><g transform="translate(0, 300)"><path d="M0 -300C60.1 -296.6 120.2 -293.1 150 -259.8C179.8 -226.5 179.2 -163.3 199.2 -115C219.1 -66.7 259.6 -33.4 300 0L0 0Z" fill="#0c1c30"></path><path d="M0 -262.5C52.6 -259.5 105.2 -256.5 131.2 -227.3C157.3 -198.2 156.8 -142.9 174.3 -100.6C191.7 -58.4 227.1 -29.2 262.5 0L0 0Z" fill="#312c4f"></path><path d="M0 -225C45.1 -222.4 90.2 -219.8 112.5 -194.9C134.8 -169.9 134.4 -122.5 149.4 -86.3C164.3 -50 194.7 -25 225 0L0 0Z" fill="#623965"></path><path d="M0 -187.5C37.6 -185.4 75.1 -183.2 93.7 -162.4C112.4 -141.6 112 -102.1 124.5 -71.9C137 -41.7 162.2 -20.8 187.5 0L0 0Z" fill="#96446e"></path><path d="M0 -150C30.1 -148.3 60.1 -146.6 75 -129.9C89.9 -113.2 89.6 -81.6 99.6 -57.5C109.6 -33.4 129.8 -16.7 150 0L0 0Z" fill="#c55469"></path><path d="M0 -112.5C22.5 -111.2 45.1 -109.9 56.2 -97.4C67.4 -84.9 67.2 -61.2 74.7 -43.1C82.2 -25 97.3 -12.5 112.5 0L0 0Z" fill="#e9705a"></path><path d="M0 -75C15 -74.1 30.1 -73.3 37.5 -65C44.9 -56.6 44.8 -40.8 49.8 -28.8C54.8 -16.7 64.9 -8.3 75 0L0 0Z" fill="#fa9845"></path><path d="M0 -37.5C7.5 -37.1 15 -36.6 18.7 -32.5C22.5 -28.3 22.4 -20.4 24.9 -14.4C27.4 -8.3 32.4 -4.2 37.5 0L0 0Z" fill="#fbae3c"></path></g></svg>